<svg id="visual" viewBox="0 0 900 600" width="900" height="600" xmlns="http://www.w3.org/2000/svg" xmlns:xlink="http://www.w3.org/1999/xlink" version="1.1"><g stroke-width="1" stroke-linejoin="bevel"><path d="M478 281L520 212L418 185Z" fill="#0e001b" stroke="#0e001b"></path><path d="M418 185L381 304L478 281Z" fill="#080012" stroke="#080012"></path><path d="M478 281L576 215L520 212Z" fill="#06000e" stroke="#06000e"></path><path d="M480 81L410 107L418 185Z" fill="#0a0015" stroke="#0a0015"></path><path d="M480 81L418 185L520 212Z" fill="#0d0019" stroke="#0d0019"></path><path d="M418 185L308 192L381 304Z" fill="#0e001b" stroke="#0e001b"></path><path d="M594 90L480 81L520 212Z" fill="#0d0019" stroke="#0d0019"></path><path d="M410 107L308 192L418 185Z" fill="#0c0017" stroke="#0c0017"></path><path d="M381 304L480 391L478 281Z" fill="#0a0015" stroke="#0a0015"></path><path d="M478 281L614 314L576 215Z" fill="#06000e" stroke="#06000e"></path><path d="M308 192L303 288L381 304Z" fill="#070010" stroke="#070010"></path><path d="M381 304L396 423L480 391Z" fill="#0f001c" stroke="#0f001c"></path><path d="M480 391L614 314L478 281Z" fill="#0b0016" stroke="#0b0016"></path><path d="M692 202L594 90L576 215Z" fill="#06000e" stroke="#06000e"></path><path d="M576 215L594 90L520 212Z" fill="#0e001a" stroke="#0e001a"></path><path d="M314 386L396 423L381 304Z" fill="#080012" stroke="#080012"></path><path d="M303 288L314 386L381 304Z" fill="#0f001c" stroke="#0f001c"></path><path d="M594 90L500 0L480 81Z" fill="#0e001a" stroke="#0e001a"></path><path d="M480 81L378 0L410 107Z" fill="#080012" stroke="#080012"></path><path d="M410 107L284 80L308 192Z" fill="#080012" stroke="#080012"></path><path d="M378 0L284 80L410 107Z" fill="#070010" stroke="#070010"></path><path d="M180 221L223 310L303 288Z" fill="#0f001c" stroke="#0f001c"></path><path d="M689 293L692 202L576 215Z" fill="#0a0015" stroke="#0a0015"></path><path d="M480 391L600 410L614 314Z" fill="#0b0016" stroke="#0b0016"></path><path d="M614 314L689 293L576 215Z" fill="#0a0015" stroke="#0a0015"></path><path d="M491 500L600 410L480 391Z" fill="#080012" stroke="#080012"></path><path d="M722 386L689 293L614 314Z" fill="#06000e" stroke="#06000e"></path><path d="M500 0L378 0L480 81Z" fill="#06000e" stroke="#06000e"></path><path d="M180 221L303 288L308 192Z" fill="#0e001a" stroke="#0e001a"></path><path d="M303 288L223 310L314 386Z" fill="#0d0019" stroke="#0d0019"></path><path d="M701 0L584 0L594 90Z" fill="#0c0017" stroke="#0c0017"></path><path d="M594 90L584 0L500 0Z" fill="#0d0019" stroke="#0d0019"></path><path d="M279 518L422 496L396 423Z" fill="#0c0017" stroke="#0c0017"></path><path d="M396 423L422 496L480 391Z" fill="#080012" stroke="#080012"></path><path d="M279 518L396 423L314 386Z" fill="#0c0017" stroke="#0c0017"></path><path d="M422 496L491 500L480 391Z" fill="#0f001c" stroke="#0f001c"></path><path d="M378 0L297 0L284 80Z" fill="#0b0016" stroke="#0b0016"></path><path d="M201 112L180 221L308 192Z" fill="#090013" stroke="#090013"></path><path d="M201 112L308 192L284 80Z" fill="#0c0017" stroke="#0c0017"></path><path d="M692 202L721 110L594 90Z" fill="#06000e" stroke="#06000e"></path><path d="M796 198L721 110L692 202Z" fill="#090013" stroke="#090013"></path><path d="M190 0L201 112L284 80Z" fill="#0b0016" stroke="#0b0016"></path><path d="M600 410L722 386L614 314Z" fill="#080012" stroke="#080012"></path><path d="M491 500L611 477L600 410Z" fill="#06000e" stroke="#06000e"></path><path d="M611 477L722 386L600 410Z" fill="#06000e" stroke="#06000e"></path><path d="M689 293L796 198L692 202Z" fill="#0c0017" stroke="#0c0017"></path><path d="M92 377L215 418L223 310Z" fill="#06000e" stroke="#06000e"></path><path d="M223 310L215 418L314 386Z" fill="#090013" stroke="#090013"></path><path d="M721 110L701 0L594 90Z" fill="#0c0017" stroke="#0c0017"></path><path d="M818 315L796 198L689 293Z" fill="#080012" stroke="#080012"></path><path d="M721 110L786 76L701 0Z" fill="#0d0019" stroke="#0d0019"></path><path d="M215 418L279 518L314 386Z" fill="#0f001c" stroke="#0f001c"></path><path d="M422 496L502 600L491 500Z" fill="#070010" stroke="#070010"></path><path d="M297 0L190 0L284 80Z" fill="#06000e" stroke="#06000e"></path><path d="M201 112L87 210L180 221Z" fill="#0c0017" stroke="#0c0017"></path><path d="M796 198L786 76L721 110Z" fill="#0c0017" stroke="#0c0017"></path><path d="M711 510L787 383L722 386Z" fill="#070010" stroke="#070010"></path><path d="M722 386L818 315L689 293Z" fill="#0e001b" stroke="#0e001b"></path><path d="M787 383L818 315L722 386Z" fill="#06000e" stroke="#06000e"></path><path d="M796 198L900 88L786 76Z" fill="#0d0019" stroke="#0d0019"></path><path d="M103 86L87 210L201 112Z" fill="#0d0019" stroke="#0d0019"></path><path d="M180 221L86 312L223 310Z" fill="#070010" stroke="#070010"></path><path d="M402 600L502 600L422 496Z" fill="#0b0016" stroke="#0b0016"></path><path d="M491 500L588 600L611 477Z" fill="#090013" stroke="#090013"></path><path d="M611 477L711 510L722 386Z" fill="#080012" stroke="#080012"></path><path d="M692 600L711 510L611 477Z" fill="#090013" stroke="#090013"></path><path d="M215 418L197 495L279 518Z" fill="#0d0019" stroke="#0d0019"></path><path d="M279 518L402 600L422 496Z" fill="#0a0015" stroke="#0a0015"></path><path d="M122 504L197 495L215 418Z" fill="#06000e" stroke="#06000e"></path><path d="M301 600L402 600L279 518Z" fill="#0e001a" stroke="#0e001a"></path><path d="M190 0L103 86L201 112Z" fill="#0b0016" stroke="#0b0016"></path><path d="M87 210L86 312L180 221Z" fill="#070010" stroke="#070010"></path><path d="M900 0L785 0L786 76Z" fill="#090013" stroke="#090013"></path><path d="M786 76L785 0L701 0Z" fill="#0b0016" stroke="#0b0016"></path><path d="M502 600L588 600L491 500Z" fill="#080012" stroke="#080012"></path><path d="M86 312L92 377L223 310Z" fill="#0e001b" stroke="#0e001b"></path><path d="M205 600L301 600L279 518Z" fill="#0e001b" stroke="#0e001b"></path><path d="M900 311L900 189L818 315Z" fill="#070010" stroke="#070010"></path><path d="M818 315L900 189L796 198Z" fill="#0b0016" stroke="#0b0016"></path><path d="M0 107L0 198L87 210Z" fill="#090013" stroke="#090013"></path><path d="M87 210L0 297L86 312Z" fill="#0a0015" stroke="#0a0015"></path><path d="M190 0L84 0L103 86Z" fill="#0b0016" stroke="#0b0016"></path><path d="M92 377L122 504L215 418Z" fill="#06000e" stroke="#06000e"></path><path d="M197 495L205 600L279 518Z" fill="#0b0016" stroke="#0b0016"></path><path d="M900 377L818 315L787 383Z" fill="#090013" stroke="#090013"></path><path d="M900 377L900 311L818 315Z" fill="#0b0016" stroke="#0b0016"></path><path d="M588 600L692 600L611 477Z" fill="#0e001a" stroke="#0e001a"></path><path d="M810 515L787 383L711 510Z" fill="#090013" stroke="#090013"></path><path d="M806 600L810 515L711 510Z" fill="#080012" stroke="#080012"></path><path d="M122 504L205 600L197 495Z" fill="#070010" stroke="#070010"></path><path d="M900 189L900 88L796 198Z" fill="#0e001b" stroke="#0e001b"></path><path d="M0 107L87 210L103 86Z" fill="#0b0016" stroke="#0b0016"></path><path d="M86 312L0 297L92 377Z" fill="#0b0016" stroke="#0b0016"></path><path d="M92 377L0 408L122 504Z" fill="#06000e" stroke="#06000e"></path><path d="M900 483L900 377L787 383Z" fill="#090013" stroke="#090013"></path><path d="M0 198L0 297L87 210Z" fill="#0f001c" stroke="#0f001c"></path><path d="M84 0L0 107L103 86Z" fill="#0f001c" stroke="#0f001c"></path><path d="M900 88L900 0L786 76Z" fill="#0a0015" stroke="#0a0015"></path><path d="M0 297L0 408L92 377Z" fill="#0e001a" stroke="#0e001a"></path><path d="M122 504L116 600L205 600Z" fill="#0e001b" stroke="#0e001b"></path><path d="M900 600L900 483L810 515Z" fill="#0a0015" stroke="#0a0015"></path><path d="M810 515L900 483L787 383Z" fill="#0e001a" stroke="#0e001a"></path><path d="M692 600L806 600L711 510Z" fill="#0e001b" stroke="#0e001b"></path><path d="M0 600L116 600L122 504Z" fill="#0e001a" stroke="#0e001a"></path><path d="M84 0L0 0L0 107Z" fill="#090013" stroke="#090013"></path><path d="M0 408L0 496L122 504Z" fill="#0e001a" stroke="#0e001a"></path><path d="M806 600L900 600L810 515Z" fill="#0e001a" stroke="#0e001a"></path><path d="M0 496L0 600L122 504Z" fill="#0f001c" stroke="#0f001c"></path></g></svg>