<svg id="visual" viewBox="0 0 900 600" width="900" height="600" xmlns="http://www.w3.org/2000/svg" xmlns:xlink="http://www.w3.org/1999/xlink" version="1.1"><g stroke-width="1" stroke-linejoin="bevel"><path d="M388 330L332 285L283 369Z" fill="#100c35" stroke="#100c35"></path><path d="M404 216L267 232L332 285Z" fill="#120d3b" stroke="#120d3b"></path><path d="M332 285L267 232L283 369Z" fill="#0d0729" stroke="#0d0729"></path><path d="M160 334L211 400L283 369Z" fill="#110d38" stroke="#110d38"></path><path d="M283 369L437 437L388 330Z" fill="#100c35" stroke="#100c35"></path><path d="M322 515L437 437L283 369Z" fill="#100c35" stroke="#100c35"></path><path d="M539 316L404 216L388 330Z" fill="#0d0729" stroke="#0d0729"></path><path d="M388 330L404 216L332 285Z" fill="#110d38" stroke="#110d38"></path><path d="M296 74L225 207L267 232Z" fill="#120d3b" stroke="#120d3b"></path><path d="M267 232L160 334L283 369Z" fill="#0c0626" stroke="#0c0626"></path><path d="M225 207L160 334L267 232Z" fill="#110d38" stroke="#110d38"></path><path d="M217 495L322 515L283 369Z" fill="#110d38" stroke="#110d38"></path><path d="M118 472L217 495L211 400Z" fill="#0e092c" stroke="#0e092c"></path><path d="M211 400L217 495L283 369Z" fill="#120d3b" stroke="#120d3b"></path><path d="M322 515L431 511L437 437Z" fill="#0e092c" stroke="#0e092c"></path><path d="M463 532L533 383L437 437Z" fill="#160e41" stroke="#160e41"></path><path d="M437 437L533 383L388 330Z" fill="#0d0729" stroke="#0d0729"></path><path d="M533 383L539 316L388 330Z" fill="#0c0626" stroke="#0c0626"></path><path d="M539 316L498 187L404 216Z" fill="#0d0729" stroke="#0d0729"></path><path d="M404 216L402 121L267 232Z" fill="#0e092c" stroke="#0e092c"></path><path d="M426 600L463 532L431 511Z" fill="#120d3b" stroke="#120d3b"></path><path d="M431 511L463 532L437 437Z" fill="#0e092c" stroke="#0e092c"></path><path d="M498 187L402 121L404 216Z" fill="#160e41" stroke="#160e41"></path><path d="M73 385L118 472L211 400Z" fill="#0d0729" stroke="#0d0729"></path><path d="M93 197L82 292L160 334Z" fill="#100c35" stroke="#100c35"></path><path d="M160 334L73 385L211 400Z" fill="#140e3e" stroke="#140e3e"></path><path d="M222 600L325 600L322 515Z" fill="#0c0626" stroke="#0c0626"></path><path d="M322 515L426 600L431 511Z" fill="#0f0b32" stroke="#0f0b32"></path><path d="M222 600L322 515L217 495Z" fill="#0d0729" stroke="#0d0729"></path><path d="M82 292L73 385L160 334Z" fill="#140e3e" stroke="#140e3e"></path><path d="M402 121L296 74L267 232Z" fill="#120d3b" stroke="#120d3b"></path><path d="M225 207L93 197L160 334Z" fill="#0c0626" stroke="#0c0626"></path><path d="M325 600L426 600L322 515Z" fill="#0f0b32" stroke="#0f0b32"></path><path d="M203 76L93 197L225 207Z" fill="#100c35" stroke="#100c35"></path><path d="M124 600L222 600L217 495Z" fill="#140e3e" stroke="#140e3e"></path><path d="M632 373L618 307L539 316Z" fill="#100c35" stroke="#100c35"></path><path d="M539 316L615 184L498 187Z" fill="#0c0626" stroke="#0c0626"></path><path d="M632 373L539 316L533 383Z" fill="#100c35" stroke="#100c35"></path><path d="M632 373L533 383L637 529Z" fill="#100c35" stroke="#100c35"></path><path d="M296 74L203 76L225 207Z" fill="#160e41" stroke="#160e41"></path><path d="M570 133L524 111L498 187Z" fill="#0a0523" stroke="#0a0523"></path><path d="M498 187L524 111L402 121Z" fill="#100c35" stroke="#100c35"></path><path d="M402 121L331 0L296 74Z" fill="#100c35" stroke="#100c35"></path><path d="M637 529L533 383L463 532Z" fill="#160e41" stroke="#160e41"></path><path d="M426 600L494 600L463 532Z" fill="#0e092c" stroke="#0e092c"></path><path d="M615 184L570 133L498 187Z" fill="#110d38" stroke="#110d38"></path><path d="M618 307L615 184L539 316Z" fill="#100c35" stroke="#100c35"></path><path d="M694 278L615 184L618 307Z" fill="#0c0626" stroke="#0c0626"></path><path d="M118 472L124 600L217 495Z" fill="#0d0729" stroke="#0d0729"></path><path d="M0 512L124 600L118 472Z" fill="#100c35" stroke="#100c35"></path><path d="M0 228L82 292L93 197Z" fill="#140e3e" stroke="#140e3e"></path><path d="M0 228L0 287L82 292Z" fill="#0f0b32" stroke="#0f0b32"></path><path d="M82 292L0 287L73 385Z" fill="#0e0a2f" stroke="#0e0a2f"></path><path d="M73 385L0 413L118 472Z" fill="#0e092c" stroke="#0e092c"></path><path d="M0 287L0 413L73 385Z" fill="#0d0729" stroke="#0d0729"></path><path d="M417 0L402 121L524 111Z" fill="#0c0626" stroke="#0c0626"></path><path d="M417 0L331 0L402 121Z" fill="#0e092c" stroke="#0e092c"></path><path d="M296 74L172 0L203 76Z" fill="#0f0b32" stroke="#0f0b32"></path><path d="M172 0L120 70L203 76Z" fill="#100c35" stroke="#100c35"></path><path d="M203 76L120 70L93 197Z" fill="#100c35" stroke="#100c35"></path><path d="M0 139L0 228L93 197Z" fill="#0d0729" stroke="#0d0729"></path><path d="M505 0L417 0L524 111Z" fill="#120d3b" stroke="#120d3b"></path><path d="M494 600L572 600L463 532Z" fill="#0d0729" stroke="#0d0729"></path><path d="M572 600L637 529L463 532Z" fill="#0a0523" stroke="#0a0523"></path><path d="M732 370L694 278L632 373Z" fill="#100c35" stroke="#100c35"></path><path d="M632 373L694 278L618 307Z" fill="#0e0a2f" stroke="#0e0a2f"></path><path d="M0 413L0 512L118 472Z" fill="#0e0a2f" stroke="#0e0a2f"></path><path d="M331 0L172 0L296 74Z" fill="#0a0523" stroke="#0a0523"></path><path d="M120 70L0 139L93 197Z" fill="#160e41" stroke="#160e41"></path><path d="M582 0L524 111L570 133Z" fill="#0d0729" stroke="#0d0729"></path><path d="M582 0L505 0L524 111Z" fill="#120d3b" stroke="#120d3b"></path><path d="M582 0L570 133L723 77Z" fill="#0f0b32" stroke="#0f0b32"></path><path d="M694 278L705 228L615 184Z" fill="#0a0523" stroke="#0a0523"></path><path d="M0 0L0 139L120 70Z" fill="#0e0a2f" stroke="#0e0a2f"></path><path d="M172 0L125 0L120 70Z" fill="#0c0626" stroke="#0c0626"></path><path d="M703 526L732 370L632 373Z" fill="#0c0626" stroke="#0c0626"></path><path d="M694 278L792 269L705 228Z" fill="#0f0b32" stroke="#0f0b32"></path><path d="M738 600L703 526L637 529Z" fill="#160e41" stroke="#160e41"></path><path d="M637 529L703 526L632 373Z" fill="#0f0b32" stroke="#0f0b32"></path><path d="M0 512L0 600L124 600Z" fill="#0c0626" stroke="#0c0626"></path><path d="M723 77L570 133L615 184Z" fill="#0d0729" stroke="#0d0729"></path><path d="M703 526L779 397L732 370Z" fill="#0e092c" stroke="#0e092c"></path><path d="M732 370L792 269L694 278Z" fill="#120d3b" stroke="#120d3b"></path><path d="M779 397L792 269L732 370Z" fill="#0e0a2f" stroke="#0e0a2f"></path><path d="M705 228L723 77L615 184Z" fill="#0e092c" stroke="#0e092c"></path><path d="M776 169L723 77L705 228Z" fill="#110d38" stroke="#110d38"></path><path d="M792 269L776 169L705 228Z" fill="#110d38" stroke="#110d38"></path><path d="M125 0L0 0L120 70Z" fill="#0a0523" stroke="#0a0523"></path><path d="M572 600L738 600L637 529Z" fill="#160e41" stroke="#160e41"></path><path d="M703 526L789 514L779 397Z" fill="#120d3b" stroke="#120d3b"></path><path d="M738 600L789 514L703 526Z" fill="#0d0729" stroke="#0d0729"></path><path d="M779 397L900 360L792 269Z" fill="#120d3b" stroke="#120d3b"></path><path d="M763 0L732 0L723 77Z" fill="#140e3e" stroke="#140e3e"></path><path d="M723 77L732 0L582 0Z" fill="#0a0523" stroke="#0a0523"></path><path d="M738 600L809 600L789 514Z" fill="#0a0523" stroke="#0a0523"></path><path d="M900 463L900 360L779 397Z" fill="#0d0729" stroke="#0d0729"></path><path d="M839 73L723 77L776 169Z" fill="#110d38" stroke="#110d38"></path><path d="M839 73L763 0L723 77Z" fill="#140e3e" stroke="#140e3e"></path><path d="M900 463L779 397L789 514Z" fill="#100c35" stroke="#100c35"></path><path d="M792 269L900 239L776 169Z" fill="#140e3e" stroke="#140e3e"></path><path d="M900 360L900 303L792 269Z" fill="#160e41" stroke="#160e41"></path><path d="M900 93L839 73L776 169Z" fill="#0a0523" stroke="#0a0523"></path><path d="M900 303L900 239L792 269Z" fill="#0d0729" stroke="#0d0729"></path><path d="M900 600L900 463L789 514Z" fill="#0e092c" stroke="#0e092c"></path><path d="M900 239L900 93L776 169Z" fill="#0c0626" stroke="#0c0626"></path><path d="M839 73L900 0L763 0Z" fill="#100c35" stroke="#100c35"></path><path d="M809 600L900 600L789 514Z" fill="#110d38" stroke="#110d38"></path><path d="M900 93L900 0L839 73Z" fill="#120d3b" stroke="#120d3b"></path></g></svg>