<svg id="visual" viewBox="0 0 900 600" width="900" height="600" xmlns="http://www.w3.org/2000/svg" xmlns:xlink="http://www.w3.org/1999/xlink" version="1.1"><rect x="0" y="0" width="900" height="600" fill="#070021"></rect><path d="M0 225L21.5 214.8C43 204.7 86 184.3 128.8 176.3C171.7 168.3 214.3 172.7 257.2 177.2C300 181.7 343 186.3 385.8 198.8C428.7 211.3 471.3 231.7 514.2 225.2C557 218.7 600 185.3 642.8 182.2C685.7 179 728.3 206 771.2 211.8C814 217.7 857 202.3 878.5 194.7L900 187L900 0L878.5 0C857 0 814 0 771.2 0C728.3 0 685.7 0 642.8 0C600 0 557 0 514.2 0C471.3 0 428.7 0 385.8 0C343 0 300 0 257.2 0C214.3 0 171.7 0 128.8 0C86 0 43 0 21.5 0L0 0Z" fill="#160e41"></path><path d="M0 233L21.5 222C43 211 86 189 128.8 174.7C171.7 160.3 214.3 153.7 257.2 152C300 150.3 343 153.7 385.8 154.8C428.7 156 471.3 155 514.2 150.5C557 146 600 138 642.8 136.3C685.7 134.7 728.3 139.3 771.2 144.5C814 149.7 857 155.3 878.5 158.2L900 161L900 0L878.5 0C857 0 814 0 771.2 0C728.3 0 685.7 0 642.8 0C600 0 557 0 514.2 0C471.3 0 428.7 0 385.8 0C343 0 300 0 257.2 0C214.3 0 171.7 0 128.8 0C86 0 43 0 21.5 0L0 0Z" fill="#140e3d"></path><path d="M0 196L21.5 191.3C43 186.7 86 177.3 128.8 177.2C171.7 177 214.3 186 257.2 193C300 200 343 205 385.8 194.7C428.7 184.3 471.3 158.7 514.2 156.8C557 155 600 177 642.8 180C685.7 183 728.3 167 771.2 168.8C814 170.7 857 190.3 878.5 200.2L900 210L900 0L878.5 0C857 0 814 0 771.2 0C728.3 0 685.7 0 642.8 0C600 0 557 0 514.2 0C471.3 0 428.7 0 385.8 0C343 0 300 0 257.2 0C214.3 0 171.7 0 128.8 0C86 0 43 0 21.5 0L0 0Z" fill="#120d3a"></path><path d="M0 117L21.5 124.8C43 132.7 86 148.3 128.8 159.3C171.7 170.3 214.3 176.7 257.2 179.3C300 182 343 181 385.8 169.8C428.7 158.7 471.3 137.3 514.2 134.7C557 132 600 148 642.8 155.5C685.7 163 728.3 162 771.2 158.2C814 154.3 857 147.7 878.5 144.3L900 141L900 0L878.5 0C857 0 814 0 771.2 0C728.3 0 685.7 0 642.8 0C600 0 557 0 514.2 0C471.3 0 428.7 0 385.8 0C343 0 300 0 257.2 0C214.3 0 171.7 0 128.8 0C86 0 43 0 21.5 0L0 0Z" fill="#100c36"></path><path d="M0 111L21.5 115.5C43 120 86 129 128.8 134.2C171.7 139.3 214.3 140.7 257.2 137.8C300 135 343 128 385.8 117.7C428.7 107.3 471.3 93.7 514.2 87.3C557 81 600 82 642.8 87.3C685.7 92.7 728.3 102.3 771.2 108C814 113.7 857 115.3 878.5 116.2L900 117L900 0L878.5 0C857 0 814 0 771.2 0C728.3 0 685.7 0 642.8 0C600 0 557 0 514.2 0C471.3 0 428.7 0 385.8 0C343 0 300 0 257.2 0C214.3 0 171.7 0 128.8 0C86 0 43 0 21.5 0L0 0Z" fill="#0f0b32"></path><path d="M0 75L21.5 80C43 85 86 95 128.8 92.5C171.7 90 214.3 75 257.2 74.3C300 73.7 343 87.3 385.8 91.5C428.7 95.7 471.3 90.3 514.2 89C557 87.7 600 90.3 642.8 97.5C685.7 104.7 728.3 116.3 771.2 121C814 125.7 857 123.3 878.5 122.2L900 121L900 0L878.5 0C857 0 814 0 771.2 0C728.3 0 685.7 0 642.8 0C600 0 557 0 514.2 0C471.3 0 428.7 0 385.8 0C343 0 300 0 257.2 0C214.3 0 171.7 0 128.8 0C86 0 43 0 21.5 0L0 0Z" fill="#0e0a2e"></path><path d="M0 88L21.5 86.3C43 84.7 86 81.3 128.8 74.2C171.7 67 214.3 56 257.2 55.7C300 55.3 343 65.7 385.8 74C428.7 82.3 471.3 88.7 514.2 83.7C557 78.7 600 62.3 642.8 62.8C685.7 63.3 728.3 80.7 771.2 83C814 85.3 857 72.7 878.5 66.3L900 60L900 0L878.5 0C857 0 814 0 771.2 0C728.3 0 685.7 0 642.8 0C600 0 557 0 514.2 0C471.3 0 428.7 0 385.8 0C343 0 300 0 257.2 0C214.3 0 171.7 0 128.8 0C86 0 43 0 21.5 0L0 0Z" fill="#0d082b"></path><path d="M0 32L21.5 35C43 38 86 44 128.8 45C171.7 46 214.3 42 257.2 38.7C300 35.3 343 32.7 385.8 34.3C428.7 36 471.3 42 514.2 47.8C557 53.7 600 59.3 642.8 55.8C685.7 52.3 728.3 39.7 771.2 41.3C814 43 857 59 878.5 67L900 75L900 0L878.5 0C857 0 814 0 771.2 0C728.3 0 685.7 0 642.8 0C600 0 557 0 514.2 0C471.3 0 428.7 0 385.8 0C343 0 300 0 257.2 0C214.3 0 171.7 0 128.8 0C86 0 43 0 21.5 0L0 0Z" fill="#0c0727"></path><path d="M0 17L21.5 17C43 17 86 17 128.8 21C171.7 25 214.3 33 257.2 33.8C300 34.7 343 28.3 385.8 27.2C428.7 26 471.3 30 514.2 33.3C557 36.7 600 39.3 642.8 39.3C685.7 39.3 728.3 36.7 771.2 37.3C814 38 857 42 878.5 44L900 46L900 0L878.5 0C857 0 814 0 771.2 0C728.3 0 685.7 0 642.8 0C600 0 557 0 514.2 0C471.3 0 428.7 0 385.8 0C343 0 300 0 257.2 0C214.3 0 171.7 0 128.8 0C86 0 43 0 21.5 0L0 0Z" fill="#0a0523"></path></svg>